<svg xmlns="http://www.w3.org/2000/svg" xmlns:xlink="http://www.w3.org/1999/xlink" width="14" height="5.97" viewBox="0 0 14 5.97">
  <defs>
    <style>
      .cls-1 {
        fill: #ce7024;
        fill-rule: evenodd;
        filter: url(#filter);
      }
    </style>
    <filter id="filter" x="670" y="2550.03" width="14" height="5.97" filterUnits="userSpaceOnUse">
      <feFlood result="flood" flood-color="#1c1b1a" flood-opacity="0.65"/>
      <feComposite result="composite" operator="in" in2="SourceGraphic"/>
      <feBlend result="blend" in2="SourceGraphic"/>
    </filter>
  </defs>
  <path id="стрелка" class="cls-1" d="M683.86,2550.12a0.324,0.324,0,0,1,0,.53l-6.5,5.24a0.545,0.545,0,0,1-.663,0,0.334,0.334,0,0,1,0-.54l6.5-5.23A0.545,0.545,0,0,1,683.86,2550.12Zm-6.564,5.77a0.334,0.334,0,0,0,0-.54l-6.5-5.23a0.545,0.545,0,0,0-.663,0,0.324,0.324,0,0,0,0,.53l6.5,5.24A0.545,0.545,0,0,0,677.3,2555.89Z" transform="translate(-670 -2550.03)"/>
</svg>
